# xmcd
#
# Track frame offsets:
#	183
#	22190
#	41858
#	64170
#	85190
#	103508
#	122758
#	144678
#	159865
#	165605
#	185290
#	201390
#	217168
#
# Disc length: 3137 seconds
#
# Revision: 27
# Processed by: cddbd v1.5.2PL0 Copyright (c) Steve Scherf et al.
# Submitted via: audiograbber 1.83.01
#
DISCID=be0c3f0d
DTITLE=Simple Minds - Real Life
DYEAR=1991
DGENRE=New Wave
TTITLE0=Real Life
TTITLE1=See The Lights
TTITLE2=Let There Be Love
TTITLE3=Woman
TTITLE4=Stand By Love
TTITLE5=Let The Children Speak
TTITLE6=African Skies
TTITLE7=Ghostrider
TTITLE8=Banging On The Door (Intro)
TTITLE9=Banging On The Door
TTITLE10=Travelling Man
TTITLE11=Rivers Of Ice
TTITLE12=When Two Worlds Collide
EXTD=YEAR: 1991
EXTT0=
EXTT1=
EXTT2=
EXTT3=
EXTT4=
EXTT5=
EXTT6=
EXTT7=
EXTT8=
EXTT9=
EXTT10=
EXTT11=
EXTT12=
PLAYORDER=
